<?xml version="1.0" encoding="utf-8"?>
<!-- Generator: Adobe Illustrator 18.1.1, SVG Export Plug-In . SVG Version: 6.00 Build 0)  -->
<!DOCTYPE svg PUBLIC "-//W3C//DTD SVG 1.1//EN" "http://www.w3.org/Graphics/SVG/1.1/DTD/svg11.dtd">
<svg version="1.1" id="Layer_1" xmlns="http://www.w3.org/2000/svg" xmlns:xlink="http://www.w3.org/1999/xlink" x="0px" y="0px"
	 viewBox="0 0 40 43" enable-background="new 0 0 40 43" xml:space="preserve">
<path fill="#1B3C6B" d="M38.9,17.1l-5.1-5.1V4.8c0-1.3-1-2.3-2.3-2.3h-0.7c-1.3,0-2.3,1-2.3,2.3v2l-5.2-5.1C22.7,0.7,21.4,0,20,0
	c-1.5,0-2.8,0.7-3.4,1.8L1.3,16.9C0.5,17.6,0,18.5,0,19.6c0,1.9,1.7,3.5,3.8,3.5l0.2,0h1.8v16c0,2.1,1.7,3.9,3.9,3.9h6V28.3h9V43h6
	c2.1,0,3.9-1.7,3.9-3.9v-16h1.6c2.2,0,3.9-1.6,3.9-3.5C40,18.6,39.6,17.8,38.9,17.1z"/>
</svg>
