<?xml version="1.0" encoding="utf-8"?>
<!-- Generator: Adobe Illustrator 18.1.1, SVG Export Plug-In . SVG Version: 6.00 Build 0)  -->
<!DOCTYPE svg PUBLIC "-//W3C//DTD SVG 1.1//EN" "http://www.w3.org/Graphics/SVG/1.1/DTD/svg11.dtd">
<svg version="1.1" id="Layer_1" xmlns="http://www.w3.org/2000/svg" xmlns:xlink="http://www.w3.org/1999/xlink" x="0px" y="0px"
	 viewBox="0 0 75 40" enable-background="new 0 0 75 40" xml:space="preserve">
<path fill="#1B3C6B" d="M0,25.6l0,6.5l0,4.7v0l0.4,0.3c0.4,0.3,0.9,0.6,1.4,0.9L2,38.1l0.1,0c1,0.5,2,0.9,3.1,1.3l0.1,0.1l0.1,0
	c1,0.3,2.1,0.5,3.3,0.5l0.1,0l0.1,0c0.2,0,0.3,0,0.5,0c1,0,1.9-0.1,2.8-0.3l0.1,0l0.1,0c0.7-0.1,1.4-0.3,2.1-0.6l0.1,0l0.1,0
	c1.4-0.5,2.7-1.2,3.9-2.1l0.2-0.1L19,37c0.8,0.6,1.8,1.2,2.7,1.6l0.1,0l0.1,0c1,0.5,2.1,0.8,3.2,1l0.1,0l0.2,0
	c0.6,0.1,1.3,0.2,1.9,0.2l0.2,0l0.1,0c0.2,0,0.3,0,0.5,0c1,0,1.9-0.1,2.8-0.3l0.1,0l0.1,0c2.3-0.5,4.5-1.5,6.3-2.9l0,0l0.4,0.2
	c0.8,0.6,1.7,1.1,2.6,1.5l0.1,0.1l0.1,0c1,0.4,2,0.8,3.1,1l0.2,0.1l0.2,0c0.9,0.2,1.8,0.3,2.8,0.3c0.1,0,0.3,0,0.4,0l0.1,0l0.1,0
	c1.2,0,2.3-0.2,3.4-0.5l0,0l0,0c1.9-0.5,3.7-1.4,5.2-2.6l0.1,0l0.4,0.2c0.8,0.6,1.6,1.1,2.5,1.5l0.2,0.1l0.2,0.1c1,0.4,2,0.8,3,1
	l0.2,0.1l1.1,0.2l0.3,0c0.5,0.1,1.1,0.1,1.6,0.1c0.1,0,0.2,0,0.3,0l0.1,0l9-14.4H61.3l-1.6-3.2h-6.2l-1.8-3.2h6.4l-2.9-6.1h-6.8
	L41.1,0l-1.6,0l1,3.3H38v2.2h3.3l2.4,7.7L41.1,16H22l-4.4-8h-6.2v8H7.9l-1.6,3.2h39.3l1,3.2h-42l-1.6,3.2H0z"/>
</svg>
